<?xml version="1.0" encoding="utf-8"?><svg viewBox="0 0 47 47" xmlns="http://www.w3.org/2000/svg" xmlns:xlink="http://www.w3.org/1999/xlink"><style>:root>svg{display:none}:root>svg:target{display:block}</style><svg viewBox="0 0 42 42" id="facebook" xmlns="http://www.w3.org/2000/svg"><path d="M35.71 5.03H6.251a1.28 1.28 0 00-1.28 1.28v29.46c0 .708.572 1.28 1.28 1.28h29.46a1.28 1.28 0 001.28-1.28V6.31a1.28 1.28 0 00-1.28-1.28zm-3.698 9.346h-2.558c-2.005 0-2.393.953-2.393 2.353v3.086h4.787l-.625 4.831h-4.162v12.405h-4.992v-12.4h-4.174v-4.836h4.174v-3.562c0-4.135 2.526-6.388 6.216-6.388 1.77 0 3.287.132 3.73.192v4.319h-.003z"/></svg><svg viewBox="0 0 42 42" id="linkedin" xmlns="http://www.w3.org/2000/svg"><path d="M35.698 5.03H6.24a1.28 1.28 0 00-1.28 1.28v29.46c0 .708.572 1.28 1.28 1.28H35.7a1.28 1.28 0 001.28-1.28V6.31a1.28 1.28 0 00-1.28-1.28zM14.456 32.316h-4.75V17.034h4.75v15.282zm-2.373-17.372a2.754 2.754 0 110-5.508 2.754 2.754 0 010 5.508zm20.16 17.371h-4.746v-7.432c0-1.773-.032-4.051-2.47-4.051-2.47 0-2.85 1.93-2.85 3.923v7.56h-4.743v-15.28h4.555v2.089h.064c.633-1.2 2.182-2.47 4.495-2.47 4.811 0 5.696 3.166 5.696 7.281v8.381z"/></svg><svg viewBox="0 0 47 47" id="map" xmlns="http://www.w3.org/2000/svg"><path d="M23.5 27.38c4.228 0 7.667-3.438 7.667-7.666 0-4.229-3.439-7.667-7.667-7.667s-7.667 3.438-7.667 7.666c0 4.229 3.439 7.667 7.667 7.667zm0-11.5a3.837 3.837 0 013.833 3.833 3.837 3.837 0 01-3.833 3.834 3.837 3.837 0 01-3.833-3.834A3.837 3.837 0 0123.5 15.88z"/><path d="M22.389 42.357a1.912 1.912 0 002.223 0c.583-.412 14.277-10.3 14.222-22.643 0-8.455-6.88-15.334-15.334-15.334S8.167 11.26 8.167 19.704C8.11 32.057 21.806 41.945 22.389 42.357zM23.5 8.214c6.342 0 11.5 5.157 11.5 11.51.04 8.506-8.41 16.143-11.5 18.649-3.088-2.508-11.54-10.147-11.5-18.66 0-6.342 5.158-11.5 11.5-11.5z"/></svg><svg viewBox="0 0 36 36" id="phone" xmlns="http://www.w3.org/2000/svg"><path d="M23.833 1.505H12.167A4.37 4.37 0 007.792 5.88v23.334a4.37 4.37 0 004.375 4.375h11.666a4.37 4.37 0 004.375-4.375V5.88a4.37 4.37 0 00-4.375-4.375zm-2.916 29.167h-5.834v-1.458h5.834v1.458zm4.74-4.375H10.343V5.88h15.312v20.417z"/></svg><svg viewBox="0 0 26 24" id="posib-1" xmlns="http://www.w3.org/2000/svg"><path d="M7.646 13.776l3.774-3.773-8.254-8.24c-.64-.64-1.746-.467-2.146.36a5.355 5.355 0 001.04 6.08l5.586 5.573zm9.04-2.413c2.04.947 4.907.28 7.027-1.84 2.547-2.547 3.04-6.2 1.08-8.16-1.947-1.947-5.6-1.467-8.16 1.08-2.12 2.12-2.787 4.987-1.84 7.027L2.713 21.55a1.33 1.33 0 101.88 1.88l8.253-8.227 8.24 8.24a1.328 1.328 0 002.169-.431 1.329 1.329 0 00-.289-1.449l-8.24-8.24 1.96-1.96z"/></svg><svg viewBox="0 0 30 31" id="posib-2" xmlns="http://www.w3.org/2000/svg"><path d="M12.55 14.227c1.478 2.46 1.261 5.355-.508 6.525-1.769 1.14-4.408.075-5.901-2.385-1.48-2.46-1.247-5.385.521-6.525 1.77-1.14 4.408-.075 5.888 2.385zM15 24.457c2.9 0 3.625-1.125 3.625-1.125s-.725 3-3.625 3-3.625-2.955-3.625-3c0 0 .725 1.125 3.625 1.125zm8.337-12.615c1.77 1.14 2.002 4.065.523 6.525-1.494 2.46-4.133 3.525-5.902 2.385-1.769-1.17-1.986-4.065-.507-6.525s4.117-3.525 5.886-2.385zM15 27.832c3.625 0 11.6-7.71 11.6-13.5s-5.206-10.5-11.6-10.5c-6.395 0-11.6 4.71-11.6 10.5s7.975 13.5 11.6 13.5zm0-27c7.975 0 14.5 6.06 14.5 13.5 0 6.12-8.236 16.5-14.5 16.5-6.264 0-14.5-10.38-14.5-16.5C.5 6.892 7.025.832 15 .832z"/></svg><svg viewBox="0 0 42 20" id="posib-3" xmlns="http://www.w3.org/2000/svg"><path d="M32.275.833c-2.46 0-4.783.988-6.44 2.701l-12.01 11.019a5.654 5.654 0 01-4.1 1.748c-3.195 0-5.808-2.666-5.808-5.968 0-3.303 2.613-5.969 5.808-5.969 1.555 0 3.007.618 4.168 1.819l1.93 1.766 2.614-2.366-2.186-1.96a9.16 9.16 0 00-2.993-2.07 8.915 8.915 0 00-3.533-.72C4.635.833.5 5.106.5 10.333c0 5.226 4.134 9.5 9.225 9.5 2.46 0 4.783-.99 6.44-2.702l12.01-11.019a5.654 5.654 0 014.1-1.748c3.195 0 5.808 2.667 5.808 5.968 0 3.303-2.613 5.969-5.808 5.969-1.537 0-3.007-.618-4.168-1.819L26.125 12.7l-2.563 2.366 2.187 1.978a9.186 9.186 0 002.996 2.058 8.94 8.94 0 003.53.714c5.09 0 9.225-4.256 9.225-9.483 0-5.297-4.134-9.5-9.225-9.5z"/></svg><svg viewBox="0 0 42 42" id="twitter" xmlns="http://www.w3.org/2000/svg"><path d="M37.645 10.725a13.686 13.686 0 01-3.93 1.057 6.808 6.808 0 003.001-3.762 13.475 13.475 0 01-4.33 1.649 6.808 6.808 0 00-4.988-2.158 6.823 6.823 0 00-6.824 6.829c0 .528.064 1.056.168 1.565A19.396 19.396 0 016.669 8.76a6.777 6.777 0 00-.929 3.446 6.83 6.83 0 003.042 5.688 6.884 6.884 0 01-3.086-.869v.085a6.826 6.826 0 005.472 6.7 7.266 7.266 0 01-1.797.232c-.445 0-.865-.044-1.29-.104a6.837 6.837 0 006.38 4.735 13.679 13.679 0 01-8.473 2.918c-.572 0-1.1-.02-1.649-.084a19.327 19.327 0 0010.483 3.062c12.552 0 19.42-10.399 19.42-19.425 0-.296 0-.592-.02-.888a14.699 14.699 0 003.423-3.53z"/></svg></svg>